<svg viewBox="0 0 232.37 73.13" xmlns="http://www.w3.org/2000/svg"><path d="m96.58 32.38a8.89 8.89 0 0 1 -15.3-6.18v-.05a8.92 8.92 0 1 1 17.83 0 8.57 8.57 0 0 1 -2.53 6.23zm-10.51-1.93a5.77 5.77 0 0 0 8.28 0 6 6 0 0 0 1.65-4.25v-.05a6.11 6.11 0 0 0 -1.64-4.3 5.43 5.43 0 0 0 -4.16-1.77 5.38 5.38 0 0 0 -4.12 1.74 6 6 0 0 0 -1.63 4.28 6.07 6.07 0 0 0 1.62 4.35z" fill="#1a1a1a"/><path d="m103.13 34.67v-17h12.65v2.63h-9.65v4.44h8.55v2.67h-8.55v4.59h9.77v2.67z" fill="#1a1a1a"/><path d="m118.73 34.67 7.27-17.17h4.55l7.26 17.17h-5.07l-1.24-3h-6.58l-1.21 3zm7.57-6.67h3.83l-1.9-4.85z" fill="#1a1a1a"/><path d="m142.06 34.8-5.7-17.18h5l3 9.87 3.29-9.92h4.07l3.28 9.92 3-9.87h4.89l-5.7 17.18h-4.19l-3.41-9.8-3.41 9.82z" fill="#1a1a1a"/><path d="m161.41 34.67 7.26-17.17h4.55l7.26 17.17h-5.07l-1.24-3h-6.58l-1.21 3zm7.59-6.67h3.83l-1.9-4.85z" fill="#1a1a1a"/><path d="m182.38 34.67v-17h8.06q3.76 0 5.56 1.85a5.31 5.31 0 0 1 1.51 4 5.28 5.28 0 0 1 -3.51 5.21l4.07 5.94h-5.46l-3.43-5.16h-2.07v5.16zm4.73-8.86h3.11a2.91 2.91 0 0 0 1.87-.54 1.78 1.78 0 0 0 .67-1.48v-.05a1.77 1.77 0 0 0 -.67-1.51 3 3 0 0 0 -1.89-.52h-3.09z" fill="#1a1a1a"/><path d="m200.14 34.67v-17h6.58a10.11 10.11 0 0 1 7.05 2.33 7.84 7.84 0 0 1 2.57 6.1v.05a8 8 0 0 1 -2.61 6.18 10.11 10.11 0 0 1 -7.11 2.39zm4.73-4.19h1.92a4.94 4.94 0 0 0 3.42-1.13 4 4 0 0 0 1.28-3.18v-.05a4 4 0 0 0 -1.28-3.12 4.9 4.9 0 0 0 -3.42-1.15h-1.92z" fill="#1a1a1a"/><path d="m225.48 35a11.52 11.52 0 0 1 -8-2.83l2.64-3.17a8.69 8.69 0 0 0 5.53 2c1.3 0 1.95-.38 1.95-1.16v-.05a1 1 0 0 0 -.59-.89 9 9 0 0 0 -2.29-.75c-1-.24-1.89-.48-2.57-.71a10.79 10.79 0 0 1 -2-.95 3.89 3.89 0 0 1 -1.4-1.49 4.78 4.78 0 0 1 -.46-2.19 5 5 0 0 1 1.79-3.94 7.2 7.2 0 0 1 4.81-1.52 10.89 10.89 0 0 1 7 2.26l-2.36 3.34a8.3 8.3 0 0 0 -4.78-1.68 2.19 2.19 0 0 0 -1.27.31.92.92 0 0 0 -.44.79 1 1 0 0 0 .6.92 9.63 9.63 0 0 0 2.35.73 12.85 12.85 0 0 1 4.78 1.88 4 4 0 0 1 1.58 3.43v.05a4.91 4.91 0 0 1 -1.87 4.07 7.89 7.89 0 0 1 -5 1.55z" fill="#1a1a1a"/><rect fill="#f1f1f1" height="73.13" rx="1.73" width="73.03"/><path d="m0 62.86h73a0 0 0 0 1 0 0v8.68a1.59 1.59 0 0 1 -1.59 1.59h-69.82a1.59 1.59 0 0 1 -1.59-1.59v-8.68a0 0 0 0 1 0 0z" fill="#ffcf25"/><path d="m36.55 70c-5.55 0-10.55-3.64-14.22-10.28-3.33-6.09-5.19-14.12-5.19-22.61s1.86-16.52 5.19-22.6c3.67-6.64 8.67-10.3 14.22-10.3a2.92 2.92 0 0 1 0 5.83c-3.3 0-6.53 2.59-9.11 7.28-2.88 5.24-4.44 12.27-4.44 19.79s1.59 14.56 4.47 19.8c2.58 4.69 5.81 7.27 9.11 7.27s6.53-2.58 9.11-7.27c2.88-5.24 4.47-12.27 4.47-19.8a2.92 2.92 0 0 1 5.83 0c0 8.49-1.84 16.52-5.19 22.61-3.68 6.64-8.73 10.28-14.25 10.28z" fill="#0d6ae5"/><path d="m0 50.31a159.1 159.1 0 0 1 26.86-4c3.24-.2 6.53-.3 9.78-.3a162.07 162.07 0 0 1 24.81 1.99l2.88.45-.9 5.77-2.88-.45a155.49 155.49 0 0 0 -23.91-1.86c-3.13 0-6.3.1-9.42.29a154.45 154.45 0 0 0 -27.22 4.1" fill="#0d6ae5"/><path d="m0 36.19a160.08 160.08 0 0 1 26.94-3.9c3.06-.18 6.18-.29 9.27-.29 4.39 0 8.85.19 13.26.55h.56l1.27.1h.09c2.78.26 5.65.6 8.53 1l1.76.25 2 .32c1.05.18 2.08.37 3.09.56l2.35.35a.48.48 0 0 1 .37.5l-.41 5.51-3.41-.63c-1-.19-2-.37-3.14-.57l-2-.31-3-.45-2.69-.18-2-.21a154.42 154.42 0 0 0 -52.84 3.4" fill="#0d6ae5"/><path d="m0 29a154.47 154.47 0 0 1 27.22-4.06c3-.17 6-.26 9-.26 1.37 0 4.81.07 6.64.11a.6.6 0 0 0 .59-.53l.57-5a.22.22 0 0 0 -.2-.24c-2.53-.11-5.08-.18-7.6-.18-3.1 0-6.24.1-9.32.28a160.37 160.37 0 0 0 -26.9 3.88" fill="#0d6ae5"/><path d="m39.27 70.06a33 33 0 0 1 -26.14-56.3 33 33 0 0 1 39.42-5.52 33.28 33.28 0 0 1 11.53 10.69.34.34 0 0 1 -.1.48l-4.48 2.9a.36.36 0 0 1 -.5-.11 27.06 27.06 0 0 0 -45.6.83 25 25 0 0 0 -3.2 7.74 27.09 27.09 0 0 0 32.66 32.65 24.79 24.79 0 0 0 7.74-3.21 27.08 27.08 0 0 0 12.91-23.08v-1.81l4.43-.23 1.47.21a.16.16 0 0 1 .13.16v1.67a33 33 0 0 1 -30.27 32.93z" fill="#0d6ae5"/><g fill="#1a1a1a"><path d="m82.21 55.65v-10.5h7.79v1.68h-6v2.87h5.29v1.68h-5.23v4.27z"/><path d="m101.14 54.24a5.48 5.48 0 0 1 -9.42-3.81 5.49 5.49 0 1 1 11 0 5.28 5.28 0 0 1 -1.58 3.81zm-6.47-1.19a3.54 3.54 0 0 0 5.1 0 3.73 3.73 0 0 0 1-2.63 3.7 3.7 0 0 0 -1-2.64 3.31 3.31 0 0 0 -2.55-1.09 3.36 3.36 0 0 0 -2.55 1.07 3.74 3.74 0 0 0 -1 2.63 3.72 3.72 0 0 0 1 2.66z"/><path d="m105.39 55.65v-10.5h4.68a4.17 4.17 0 0 1 3 1.05 3.14 3.14 0 0 1 .87 2.27 3.09 3.09 0 0 1 -.67 2 3.65 3.65 0 0 1 -1.83 1.13l2.83 4h-2.17l-2.55-3.6h-2.31v3.66zm1.85-5.29h2.7a2.39 2.39 0 0 0 1.57-.48 1.58 1.58 0 0 0 .59-1.28 1.55 1.55 0 0 0 -.57-1.29 2.55 2.55 0 0 0 -1.61-.45h-2.68z"/><path d="m121.49 55.65v-10.5h7.78v1.65h-5.94v2.73h5.27v1.65h-5.27v2.82h6v1.65z"/><path d="m131.29 55.65 3.82-5.34-3.67-5.16h2.17l2.61 3.77 2.63-3.77h2.15l-3.66 5.13 3.81 5.37h-2.17l-2.76-4-2.78 4z"/><path d="m147.73 55.83a5.12 5.12 0 0 1 -3.81-1.56 5.27 5.27 0 0 1 -1.53-3.84 5.31 5.31 0 0 1 1.53-3.85 5.18 5.18 0 0 1 3.88-1.58 5.73 5.73 0 0 1 2.32.42 6.26 6.26 0 0 1 1.79 1.22l-1.18 1.36a4.3 4.3 0 0 0 -2.94-1.3 3.25 3.25 0 0 0 -2.48 1.07 3.74 3.74 0 0 0 -1 2.63 3.79 3.79 0 0 0 1 2.65 3.2 3.2 0 0 0 2.48 1.09 3.65 3.65 0 0 0 1.59-.34 5.81 5.81 0 0 0 1.42-1l1.2 1.2a6.35 6.35 0 0 1 -1.88 1.4 5.55 5.55 0 0 1 -2.39.43z"/><path d="m154.29 55.65v-10.5h7.79v1.65h-5.94v2.73h5.26v1.65h-5.26v2.82h6v1.65z"/><path d="m164.85 55.65v-10.5h1.84v8.85h5.52v1.68z"/><path d="m174.42 55.65v-10.5h1.84v8.85h5.52v1.68z"/><path d="m184 55.65v-10.5h7.79v1.65h-5.94v2.73h5.26v1.65h-5.26v2.82h6v1.65z"/><path d="m194.54 55.65v-10.5h1.71l5.63 7.26v-7.26h1.81v10.5h-1.54l-5.79-7.47v7.47z"/><path d="m211.73 55.83a5.12 5.12 0 0 1 -3.81-1.56 5.27 5.27 0 0 1 -1.53-3.84 5.31 5.31 0 0 1 1.53-3.85 5.2 5.2 0 0 1 3.89-1.58 5.68 5.68 0 0 1 2.31.42 6.3 6.3 0 0 1 1.8 1.22l-1.19 1.36a4.3 4.3 0 0 0 -2.94-1.3 3.23 3.23 0 0 0 -2.47 1.07 3.74 3.74 0 0 0 -1 2.63 3.79 3.79 0 0 0 1 2.65 3.18 3.18 0 0 0 2.47 1.09 3.65 3.65 0 0 0 1.59-.34 5.85 5.85 0 0 0 1.43-1l1.19 1.2a6.31 6.31 0 0 1 -1.87 1.4 5.6 5.6 0 0 1 -2.4.43z"/><path d="m218.29 55.65v-10.5h7.79v1.65h-5.94v2.73h5.26v1.65h-5.26v2.82h6v1.65z"/></g></svg>